<?xml version="1.0" standalone="no"?>
<!DOCTYPE svg PUBLIC "-//W3C//DTD SVG 20010904//EN"
 "http://www.w3.org/TR/2001/REC-SVG-20010904/DTD/svg10.dtd">
<svg version="1.0" xmlns="http://www.w3.org/2000/svg"
 width="329.000000pt" height="153.000000pt" viewBox="0 0 329.000000 153.000000"
 preserveAspectRatio="xMidYMid meet">

<g transform="translate(0.000000,153.000000) scale(0.100000,-0.100000)"
fill="#000000" stroke="none">
<path d="M1712 1153 c-11 -43 -22 -87 -24 -98 -2 -11 -12 -21 -23 -23 -47 -7
-67 -13 -61 -20 4 -3 21 -5 39 -4 l32 3 -2 -164 c-2 -161 -2 -166 -31 -223
-16 -33 -39 -67 -51 -78 -18 -16 -23 -17 -37 -5 -14 12 -16 28 -10 121 6 99 5
109 -14 128 -21 21 -45 26 -54 12 -3 -5 -16 -60 -30 -123 -35 -152 -64 -249
-77 -249 -6 0 -8 8 -5 18 3 9 10 76 17 147 10 110 10 137 -2 175 -12 38 -19
46 -42 48 -16 2 -42 -1 -59 -7 l-30 -11 7 40 c10 60 -2 102 -28 98 -48 -7 -64
-112 -24 -151 25 -26 25 -44 -5 -137 -38 -119 -78 -171 -104 -135 -20 28 -34
136 -34 267 0 108 12 223 24 235 2 2 43 -8 91 -22 147 -42 273 -32 340 26 65
57 69 136 11 175 -45 29 -116 -8 -116 -61 0 -31 15 -33 17 -2 2 26 37 57 64
57 10 0 29 -10 40 -21 24 -24 22 -70 -6 -113 -47 -72 -200 -89 -353 -41 l-83
26 6 65 c7 59 5 67 -16 90 -12 13 -28 24 -35 24 -12 0 -44 -79 -44 -111 0 -27
-12 -29 -65 -14 -90 28 -186 14 -238 -33 -45 -40 -71 -135 -51 -186 13 -33 20
-14 16 42 -3 47 0 63 20 91 38 56 71 75 141 79 81 5 163 -18 160 -44 -1 -11
-7 -52 -13 -92 -5 -40 -10 -106 -10 -145 0 -111 -61 -305 -93 -294 -13 4 -15
199 -3 258 4 21 0 35 -14 49 -34 34 -44 24 -63 -61 -22 -94 -51 -169 -68 -169
-11 0 -8 56 7 147 7 36 -22 73 -56 73 -25 0 -34 -45 -28 -140 3 -55 8 -75 25
-91 33 -33 67 -19 97 39 l25 47 1 -51 c1 -146 78 -175 136 -51 13 29 24 57 24
64 0 6 5 24 11 40 11 27 11 26 28 -37 9 -36 29 -86 44 -112 23 -40 33 -48 58
-48 55 0 109 83 139 210 21 94 26 105 44 108 15 3 16 -2 10 -33 -3 -19 -7 -98
-8 -175 -1 -126 1 -141 20 -167 27 -37 68 -42 88 -11 8 13 26 61 39 107 l24
85 21 -46 c20 -45 45 -68 76 -68 28 0 76 53 109 120 l33 69 13 -47 c38 -144
113 -181 172 -86 l22 37 19 -36 c34 -67 74 -73 126 -21 22 22 38 32 40 24 8
-22 41 -49 68 -56 39 -10 75 7 102 46 13 19 41 43 63 52 l39 17 0 -40 c0 -50
15 -79 40 -79 25 0 29 9 41 80 11 72 35 145 56 179 15 24 16 24 23 5 4 -10 4
-65 -1 -120 -4 -56 -4 -118 1 -139 12 -52 53 -91 109 -105 56 -13 89 -7 251
50 140 49 236 55 301 18 42 -24 64 -65 55 -103 -13 -52 -88 -38 -99 19 -4 18
-4 17 -6 -5 -1 -32 29 -62 64 -62 82 1 80 114 -4 165 -31 20 -49 23 -126 22
-81 -1 -103 -6 -218 -47 -151 -55 -210 -61 -254 -23 l-27 24 12 98 c18 146 16
200 -8 224 -11 11 -29 20 -39 20 -21 0 -66 -47 -76 -81 -6 -19 -8 -18 -23 13
-14 28 -22 33 -52 33 -26 0 -34 -4 -31 -15 2 -8 4 -35 3 -60 0 -33 -6 -49 -22
-62 -12 -10 -25 -18 -29 -18 -4 0 -5 37 -3 83 4 78 3 84 -23 115 -44 52 -119
43 -151 -20 -9 -17 -14 -42 -11 -56 3 -15 -3 -42 -13 -62 -10 -19 -25 -52 -35
-72 -20 -42 -41 -54 -63 -36 -12 10 -13 31 -8 120 7 99 6 108 -13 127 -22 22
-46 27 -55 13 -3 -5 -10 -48 -16 -97 -13 -106 -49 -185 -85 -185 -34 0 -61
178 -51 340 8 145 10 150 58 150 23 0 37 4 33 10 -3 6 -21 10 -39 10 l-33 0
13 67 c16 88 0 132 -47 133 -12 0 -22 -20 -37 -77z m-472 -281 c0 -59 -10 -85
-26 -71 -16 13 -18 57 -4 94 13 35 30 22 30 -23z m1006 -96 c24 -20 27 -30 26
-78 -1 -30 -6 -67 -11 -81 -9 -24 -13 -26 -38 -16 -15 6 -36 18 -45 26 -17 15
-17 18 8 50 30 40 21 63 -16 43 -16 -8 -25 -9 -33 -1 -15 15 7 59 35 71 35 14
45 12 74 -14z m-13 -200 c18 -6 18 -7 0 -36 -30 -52 -62 -36 -76 37 l-6 32 32
-14 c18 -7 40 -16 50 -19z"/>
<path d="M421 1144 c-29 -24 -110 -173 -112 -205 0 -8 -7 9 -16 36 -35 115
-130 173 -218 133 -34 -15 -32 -26 7 -24 69 3 98 -96 98 -341 0 -165 15 -244
51 -264 34 -18 45 4 53 96 17 230 110 545 160 545 22 0 25 -42 19 -300 -7
-268 1 -347 42 -437 13 -28 35 -59 49 -68 46 -30 136 -16 136 22 0 12 -3 13
-14 4 -24 -20 -53 4 -70 56 -26 79 -37 235 -30 423 8 196 -3 261 -52 319 -32
38 -62 40 -103 5z"/>
<path d="M1475 933 c9 -37 24 -51 60 -55 22 -2 31 2 33 14 5 25 -42 68 -74 68
-24 0 -26 -3 -19 -27z"/>
<path d="M1915 933 c9 -37 24 -51 60 -55 24 -2 31 1 33 18 4 27 -40 64 -75 64
-22 0 -24 -3 -18 -27z"/>
<path d="M1520 365 c0 -45 7 -58 33 -68 25 -9 57 26 57 62 0 47 -19 46 -22 -1
-2 -35 -7 -43 -23 -43 -16 0 -21 8 -23 35 -5 51 -22 63 -22 15z"/>
<path d="M1660 350 c0 -27 5 -50 10 -50 6 0 10 6 10 14 0 9 12 16 27 18 54 6
37 68 -18 68 -28 0 -29 -2 -29 -50z m58 13 c-5 -26 -34 -28 -41 -3 -4 16 0 20
20 20 18 0 24 -5 21 -17z"/>
<path d="M1792 353 l-2 -53 38 1 c36 1 36 2 7 8 -27 5 -31 11 -36 51 l-6 45
-1 -52z"/>
<path d="M1907 393 c-11 -10 -8 -93 3 -93 6 0 10 23 10 50 0 51 -1 55 -13 43z"/>
<path d="M1977 393 c-11 -10 -8 -93 3 -93 6 0 10 9 10 19 0 14 8 21 28 24 l27
4 -27 2 c-40 2 -37 31 2 31 17 0 30 5 30 10 0 11 -63 14 -73 3z"/>
<path d="M2090 390 c0 -5 6 -10 14 -10 10 0 16 -14 19 -42 l4 -43 1 43 c2 35
5 42 22 42 11 0 20 5 20 10 0 6 -18 10 -40 10 -22 0 -40 -4 -40 -10z"/>
<path d="M2210 350 l0 -50 43 2 c36 1 38 2 10 5 -40 5 -44 30 -5 36 l27 4 -27
2 c-40 2 -37 31 3 31 17 0 28 4 24 10 -3 6 -22 10 -41 10 l-34 0 0 -50z"/>
<path d="M2337 393 c-4 -3 -7 -26 -7 -50 0 -42 1 -43 33 -43 18 0 38 5 45 12
19 19 15 66 -7 78 -22 11 -54 13 -64 3z m61 -25 c16 -16 15 -23 -4 -42 -27
-27 -44 -20 -44 19 0 27 4 35 18 35 10 0 23 -5 30 -12z"/>
</g>
</svg>
